<svg width="368" height="60" viewBox="0 0 368 60" fill="none" xmlns="http://www.w3.org/2000/svg">
<g clip-path="url(#clip0_84_2)">
<path d="M-0.0793457 0.787406H30.9093C34.8694 0.709354 38.8201 1.19996 42.639 2.24408C45.6512 3.05416 48.4591 4.48252 50.8815 6.437C53.039 8.24051 54.7136 10.5467 55.7557 13.1496C56.8486 16.0021 57.3865 19.0348 57.3408 22.0866C57.3743 25.0333 56.843 27.9593 55.7755 30.7086C54.7256 33.3364 53.0697 35.6828 50.941 37.559C48.5433 39.615 45.7439 41.1564 42.7183 42.0866C38.9186 43.236 34.9597 43.7809 30.9885 43.7008H11.8485V59.2126H-0.0397401L-0.0793457 0.787406ZM31.2065 33.4449C33.2178 33.4799 35.2226 33.2077 37.1506 32.6378C38.7132 32.1749 40.1632 31.3977 41.4106 30.3543C42.5334 29.3756 43.4089 28.1483 43.9666 26.7716C44.5363 25.2754 44.8185 23.6863 44.7987 22.0866C44.9058 20.5714 44.6674 19.0517 44.1014 17.6407C43.5354 16.2297 42.6562 14.9637 41.5294 13.937C38.5884 11.8013 34.9781 10.7755 31.3452 11.0433H11.9872V33.3858L31.2065 33.4449ZM65.3059 29.8031C65.257 25.6608 66.0454 21.5508 67.6241 17.7166C69.1157 14.1528 71.3353 10.9353 74.1428 8.2677C77.0556 5.57827 80.4862 3.50245 84.228 2.16532C92.6563 -0.721901 101.815 -0.721901 110.243 2.16532C113.996 3.49308 117.434 5.56983 120.348 8.2677C123.163 10.9289 125.384 14.1481 126.867 17.7166C128.446 21.5508 129.234 25.6608 129.185 29.8031C129.236 33.9839 128.448 38.1328 126.867 42.0079C125.39 45.6079 123.169 48.8603 120.348 51.5551C117.441 54.2896 114.002 56.4063 110.243 57.7756C101.828 60.7408 92.643 60.7408 84.228 57.7756C80.4794 56.397 77.0493 54.2813 74.1428 51.5551C71.3284 48.855 69.1088 45.6041 67.6241 42.0079C66.0437 38.1328 65.2556 33.9839 65.3059 29.8031ZM76.6393 29.8031C76.5934 32.5956 77.1192 35.3683 78.1848 37.9528C79.1625 40.2967 80.6355 42.4046 82.5042 44.1339C84.396 45.8685 86.6196 47.2073 89.0427 48.0709C94.3549 49.9086 100.136 49.9086 105.448 48.0709C107.866 47.2069 110.083 45.868 111.967 44.1339C113.83 42.3994 115.302 40.2929 116.287 37.9528C117.369 35.3726 117.902 32.5979 117.852 29.8031C117.901 27.0275 117.368 24.2721 116.287 21.7126C115.306 19.3989 113.832 17.3237 111.967 15.6299C110.075 13.9435 107.857 12.6576 105.448 11.8504C100.123 10.0925 94.3682 10.0925 89.0427 11.8504C86.6283 12.6577 84.4038 13.9434 82.5042 15.6299C80.6334 17.3187 79.1589 19.3952 78.1848 21.7126C77.1327 24.2792 76.6202 27.0325 76.6789 29.8031H76.6393ZM140.717 0.787406H190.766V11.1614H152.684V22.8346H186.368V32.6771H152.684V48.9371H191.598V59.2126H140.756L140.717 0.787406ZM207.866 0.787406H219.754V48.7992H253.932V59.2126H207.965L207.866 0.787406ZM275.529 11.1614H253.873V0.787406H309.193V11.1614H287.497V59.2126H275.609L275.529 11.1614ZM321.874 0.787406H333.762V48.7992H367.94V59.2126H321.913L321.874 0.787406Z" fill="#005864"/>
</g>
<defs>
<clipPath id="clip0_84_2">
<rect width="368" height="60" fill="white"/>
</clipPath>
</defs>
</svg>
